<svg xmlns="http://www.w3.org/2000/svg" width="400" height="400" viewBox="0 0 400 400"><rect width="50" height="50" style="fill:#222"/><polygon points="50 0 0 50 50 50 50 0" style="fill:#333"/><rect x="50" width="50" height="50" style="fill:#aaa"/><polygon points="100 0 50 50 100 50 100 0" style="fill:#bbb"/><rect x="100" width="50" height="50" style="fill:#222"/><polygon points="150 0 100 50 150 50 150 0" style="fill:#333"/><rect x="150" width="50" height="50" style="fill:#aaa"/><polygon points="200 0 150 50 200 50 200 0" style="fill:#bbb"/><rect y="50" width="50" height="50" style="fill:#aaa"/><polygon points="50 50 0 100 50 100 50 50" style="fill:#bbb"/><rect x="50" y="50" width="50" height="50" style="fill:#222"/><polygon points="100 50 50 100 100 100 100 50" style="fill:#333"/><rect x="100" y="50" width="50" height="50" style="fill:#aaa"/><polygon points="150 50 100 100 150 100 150 50" style="fill:#bbb"/><rect x="150" y="50" width="50" height="50" style="fill:#222"/><polygon points="200 50 150 100 200 100 200 50" style="fill:#333"/><rect x="200" width="50" height="50" style="fill:#222"/><polygon points="250 0 200 50 250 50 250 0" style="fill:#333"/><rect x="250" width="50" height="50" style="fill:#aaa"/><polygon points="300 0 250 50 300 50 300 0" style="fill:#bbb"/><rect x="300" width="50" height="50" style="fill:#222"/><polygon points="350 0 300 50 350 50 350 0" style="fill:#333"/><rect x="350" width="50" height="50" style="fill:#aaa"/><polygon points="400 0 350 50 400 50 400 0" style="fill:#bbb"/><rect x="200" y="50" width="50" height="50" style="fill:#aaa"/><polygon points="250 50 200 100 250 100 250 50" style="fill:#bbb"/><rect x="250" y="50" width="50" height="50" style="fill:#222"/><polygon points="300 50 250 100 300 100 300 50" style="fill:#333"/><rect x="300" y="50" width="50" height="50" style="fill:#aaa"/><polygon points="350 50 300 100 350 100 350 50" style="fill:#bbb"/><rect x="350" y="50" width="50" height="50" style="fill:#222"/><polygon points="400 50 350 100 400 100 400 50" style="fill:#333"/><rect y="100" width="50" height="50" style="fill:#222"/><polygon points="50 100 0 150 50 150 50 100" style="fill:#333"/><rect x="50" y="100" width="50" height="50" style="fill:#aaa"/><polygon points="100 100 50 150 100 150 100 100" style="fill:#bbb"/><rect x="100" y="100" width="50" height="50" style="fill:#222"/><polygon points="150 100 100 150 150 150 150 100" style="fill:#333"/><rect x="150" y="100" width="50" height="50" style="fill:#aaa"/><polygon points="200 100 150 150 200 150 200 100" style="fill:#bbb"/><rect y="150" width="50" height="50" style="fill:#aaa"/><polygon points="50 150 0 200 50 200 50 150" style="fill:#bbb"/><rect x="50" y="150" width="50" height="50" style="fill:#222"/><polygon points="100 150 50 200 100 200 100 150" style="fill:#333"/><rect x="100" y="150" width="50" height="50" style="fill:#aaa"/><polygon points="150 150 100 200 150 200 150 150" style="fill:#bbb"/><rect x="150" y="150" width="50" height="50" style="fill:#222"/><polygon points="200 150 150 200 200 200 200 150" style="fill:#333"/><rect x="200" y="100" width="50" height="50" style="fill:#222"/><polygon points="250 100 200 150 250 150 250 100" style="fill:#333"/><rect x="250" y="100" width="50" height="50" style="fill:#aaa"/><polygon points="300 100 250 150 300 150 300 100" style="fill:#bbb"/><rect x="300" y="100" width="50" height="50" style="fill:#222"/><polygon points="350 100 300 150 350 150 350 100" style="fill:#333"/><rect x="350" y="100" width="50" height="50" style="fill:#aaa"/><polygon points="400 100 350 150 400 150 400 100" style="fill:#bbb"/><rect x="200" y="150" width="50" height="50" style="fill:#aaa"/><polygon points="250 150 200 200 250 200 250 150" style="fill:#bbb"/><rect x="250" y="150" width="50" height="50" style="fill:#222"/><polygon points="300 150 250 200 300 200 300 150" style="fill:#333"/><rect x="300" y="150" width="50" height="50" style="fill:#aaa"/><polygon points="350 150 300 200 350 200 350 150" style="fill:#bbb"/><rect x="350" y="150" width="50" height="50" style="fill:#222"/><polygon points="400 150 350 200 400 200 400 150" style="fill:#333"/><rect y="200" width="50" height="50" style="fill:#222"/><polygon points="50 200 0 250 50 250 50 200" style="fill:#333"/><rect x="50" y="200" width="50" height="50" style="fill:#aaa"/><polygon points="100 200 50 250 100 250 100 200" style="fill:#bbb"/><rect x="100" y="200" width="50" height="50" style="fill:#222"/><polygon points="150 200 100 250 150 250 150 200" style="fill:#333"/><rect x="150" y="200" width="50" height="50" style="fill:#aaa"/><polygon points="200 200 150 250 200 250 200 200" style="fill:#bbb"/><rect y="250" width="50" height="50" style="fill:#aaa"/><polygon points="50 250 0 300 50 300 50 250" style="fill:#bbb"/><rect x="50" y="250" width="50" height="50" style="fill:#222"/><polygon points="100 250 50 300 100 300 100 250" style="fill:#333"/><rect x="100" y="250" width="50" height="50" style="fill:#aaa"/><polygon points="150 250 100 300 150 300 150 250" style="fill:#bbb"/><rect x="150" y="250" width="50" height="50" style="fill:#222"/><polygon points="200 250 150 300 200 300 200 250" style="fill:#333"/><rect x="200" y="200" width="50" height="50" style="fill:#222"/><polygon points="250 200 200 250 250 250 250 200" style="fill:#333"/><rect x="250" y="200" width="50" height="50" style="fill:#aaa"/><polygon points="300 200 250 250 300 250 300 200" style="fill:#bbb"/><rect x="300" y="200" width="50" height="50" style="fill:#222"/><polygon points="350 200 300 250 350 250 350 200" style="fill:#333"/><rect x="350" y="200" width="50" height="50" style="fill:#aaa"/><polygon points="400 200 350 250 400 250 400 200" style="fill:#bbb"/><rect x="200" y="250" width="50" height="50" style="fill:#aaa"/><polygon points="250 250 200 300 250 300 250 250" style="fill:#bbb"/><rect x="250" y="250" width="50" height="50" style="fill:#222"/><polygon points="300 250 250 300 300 300 300 250" style="fill:#333"/><rect x="300" y="250" width="50" height="50" style="fill:#aaa"/><polygon points="350 250 300 300 350 300 350 250" style="fill:#bbb"/><rect x="350" y="250" width="50" height="50" style="fill:#222"/><polygon points="400 250 350 300 400 300 400 250" style="fill:#333"/><rect y="200" width="50" height="50" style="fill:#222"/><polygon points="50 200 0 250 50 250 50 200" style="fill:#333"/><rect x="50" y="200" width="50" height="50" style="fill:#aaa"/><polygon points="100 200 50 250 100 250 100 200" style="fill:#bbb"/><rect x="100" y="200" width="50" height="50" style="fill:#222"/><polygon points="150 200 100 250 150 250 150 200" style="fill:#333"/><rect x="150" y="200" width="50" height="50" style="fill:#aaa"/><polygon points="200 200 150 250 200 250 200 200" style="fill:#bbb"/><rect y="250" width="50" height="50" style="fill:#aaa"/><polygon points="50 250 0 300 50 300 50 250" style="fill:#bbb"/><rect x="50" y="250" width="50" height="50" style="fill:#222"/><polygon points="100 250 50 300 100 300 100 250" style="fill:#333"/><rect x="100" y="250" width="50" height="50" style="fill:#aaa"/><polygon points="150 250 100 300 150 300 150 250" style="fill:#bbb"/><rect x="150" y="250" width="50" height="50" style="fill:#222"/><polygon points="200 250 150 300 200 300 200 250" style="fill:#333"/><rect x="200" y="200" width="50" height="50" style="fill:#222"/><polygon points="250 200 200 250 250 250 250 200" style="fill:#333"/><rect x="250" y="200" width="50" height="50" style="fill:#aaa"/><polygon points="300 200 250 250 300 250 300 200" style="fill:#bbb"/><rect x="300" y="200" width="50" height="50" style="fill:#222"/><polygon points="350 200 300 250 350 250 350 200" style="fill:#333"/><rect x="350" y="200" width="50" height="50" style="fill:#aaa"/><polygon points="400 200 350 250 400 250 400 200" style="fill:#bbb"/><rect x="200" y="250" width="50" height="50" style="fill:#aaa"/><polygon points="250 250 200 300 250 300 250 250" style="fill:#bbb"/><rect x="250" y="250" width="50" height="50" style="fill:#222"/><polygon points="300 250 250 300 300 300 300 250" style="fill:#333"/><rect x="300" y="250" width="50" height="50" style="fill:#aaa"/><polygon points="350 250 300 300 350 300 350 250" style="fill:#bbb"/><rect x="350" y="250" width="50" height="50" style="fill:#222"/><polygon points="400 250 350 300 400 300 400 250" style="fill:#333"/><rect y="300" width="50" height="50" style="fill:#222"/><polygon points="50 300 0 350 50 350 50 300" style="fill:#333"/><rect x="50" y="300" width="50" height="50" style="fill:#aaa"/><polygon points="100 300 50 350 100 350 100 300" style="fill:#bbb"/><rect x="100" y="300" width="50" height="50" style="fill:#222"/><polygon points="150 300 100 350 150 350 150 300" style="fill:#333"/><rect x="150" y="300" width="50" height="50" style="fill:#aaa"/><polygon points="200 300 150 350 200 350 200 300" style="fill:#bbb"/><rect y="350" width="50" height="50" style="fill:#aaa"/><polygon points="50 350 0 400 50 400 50 350" style="fill:#bbb"/><rect x="50" y="350" width="50" height="50" style="fill:#222"/><polygon points="100 350 50 400 100 400 100 350" style="fill:#333"/><rect x="100" y="350" width="50" height="50" style="fill:#aaa"/><polygon points="150 350 100 400 150 400 150 350" style="fill:#bbb"/><rect x="150" y="350" width="50" height="50" style="fill:#222"/><polygon points="200 350 150 400 200 400 200 350" style="fill:#333"/><rect x="200" y="300" width="50" height="50" style="fill:#222"/><polygon points="250 300 200 350 250 350 250 300" style="fill:#333"/><rect x="250" y="300" width="50" height="50" style="fill:#aaa"/><polygon points="300 300 250 350 300 350 300 300" style="fill:#bbb"/><rect x="300" y="300" width="50" height="50" style="fill:#222"/><polygon points="350 300 300 350 350 350 350 300" style="fill:#333"/><rect x="350" y="300" width="50" height="50" style="fill:#aaa"/><polygon points="400 300 350 350 400 350 400 300" style="fill:#bbb"/><rect x="200" y="350" width="50" height="50" style="fill:#aaa"/><polygon points="250 350 200 400 250 400 250 350" style="fill:#bbb"/><rect x="250" y="350" width="50" height="50" style="fill:#222"/><polygon points="300 350 250 400 300 400 300 350" style="fill:#333"/><rect x="300" y="350" width="50" height="50" style="fill:#aaa"/><polygon points="350 350 300 400 350 400 350 350" style="fill:#bbb"/><rect x="350" y="350" width="50" height="50" style="fill:#222"/><polygon points="400 350 350 400 400 400 400 350" style="fill:#333"/></svg>